<svg id="logo" width="187" height="32" viewBox="0 0 187 32" fill="none" xmlns="http://www.w3.org/2000/svg">
                <g id="Property 1=Default" clip-path="url(#clip0_40_899)">
                  <g id="Group">
                    <g id="Group_2">
                      <g id="Group_3">
                        <path id="Vector" d="M8.34627 16.5641L5.06921 6.15381H0L6.04209 22.8718L3.02104 31.282H7.88543L17.051 6.15381H12.1354L8.34627 16.5641Z" fill="#1F1226"></path>
                        <path id="Vector_2" d="M30.9273 6.87187C29.6472 6.10264 28.2647 5.69238 26.7286 5.69238C25.6021 5.69238 24.4756 5.89751 23.5027 6.35905C22.4787 6.82059 21.6082 7.43597 20.8401 8.25648C20.0721 9.077 19.4576 10.0001 19.048 11.077C18.6383 12.1539 18.3823 13.2821 18.3823 14.5129C18.3823 16.1539 18.7408 17.5898 19.5088 18.9232C20.2769 20.2565 21.2498 21.3334 22.5299 22.1026C23.81 22.8719 25.1925 23.2821 26.7286 23.2821C27.9063 23.2821 28.9816 23.077 30.0057 22.6155C31.0297 22.1539 31.9002 21.5385 32.6683 20.718C33.4363 19.8975 34.0508 18.9744 34.4604 17.8975C34.8701 16.8206 35.1261 15.6924 35.1261 14.4616C35.1261 12.8206 34.7676 11.3334 33.9996 10.0001C33.2315 8.71802 32.2074 7.6411 30.9273 6.87187ZM30.0057 16.6155C29.6984 17.2308 29.2376 17.7437 28.6744 18.1539C28.1111 18.5642 27.4455 18.718 26.7286 18.718C26.0629 18.718 25.4485 18.5129 24.834 18.1539C24.2708 17.7949 23.81 17.2821 23.4515 16.6667C23.0931 16.0514 22.9395 15.3334 22.9395 14.5129C22.9395 13.7437 23.0931 13.077 23.4515 12.4103C23.7588 11.7949 24.2196 11.2821 24.7828 10.8719C25.3461 10.4616 26.0117 10.3078 26.6774 10.3078C27.343 10.3078 27.9575 10.5129 28.5719 10.8719C29.1352 11.2308 29.596 11.7437 29.9545 12.4103C30.3129 13.077 30.4665 13.7437 30.4665 14.5129C30.4665 15.2821 30.3129 15.9488 30.0057 16.6155Z" fill="#1F1226"></path>
                        <path id="Vector_3" d="M48.7975 6.15381V15.4871C48.7975 16.1025 48.6439 16.6153 48.3879 17.0769C48.1319 17.5384 47.7222 17.9487 47.2614 18.2051C46.8006 18.4615 46.2373 18.6153 45.6741 18.6153C45.1108 18.6153 44.5988 18.4615 44.0868 18.2051C43.6259 17.9487 43.2163 17.5384 42.9603 17.0769C42.653 16.6153 42.5506 16.0512 42.5506 15.4871V6.15381H37.9423V16.7692C37.9423 18 38.2495 19.0769 38.8127 20.1025C39.4272 21.0769 40.1952 21.8974 41.1681 22.4615C42.141 23.0769 43.2675 23.3333 44.4452 23.3333C45.2645 23.3333 46.0837 23.1794 46.8518 22.8718C47.6198 22.5641 48.2343 22.1538 48.7975 21.641V22.923H53.4059V6.15381H48.7975V6.15381Z" fill="#1F1226"></path>
                        <path id="Vector_4" d="M65.7973 10.4103C65.8997 10.1539 66.0022 9.89751 66.1046 9.6411C66.719 8.25648 67.4871 7.02572 68.46 5.94879C67.8455 5.79495 67.2311 5.69238 66.6166 5.69238C65.7973 5.69238 64.9781 5.84623 64.21 6.15392C63.442 6.46161 62.8275 6.87187 62.2643 7.38469V6.15392H57.6559V22.9232H62.2643V13.4873C62.2643 12.8719 62.4179 12.359 62.6739 11.8975C62.9299 11.436 63.3395 11.0257 63.8004 10.7693C64.2612 10.5129 64.8245 10.359 65.3877 10.359C65.5413 10.359 65.6437 10.359 65.7973 10.4103Z" fill="#1F1226"></path>
                      </g>
                      <g id="Group_4">
                        <path id="Vector_5" d="M82.0802 0H86.6885V22.8718H82.0802V21.0769C81.5681 21.7436 80.9537 22.2564 80.1856 22.6667C79.4175 23.0769 78.5471 23.282 77.5742 23.282C76.3453 23.282 75.2188 23.0769 74.1435 22.6154C73.0682 22.1538 72.1466 21.5385 71.3273 20.7179C70.508 19.8974 69.8936 18.9744 69.4327 17.8974C68.9719 16.8205 68.7671 15.6923 68.7671 14.4615C68.7671 13.2308 68.9719 12.1026 69.4327 11.0256C69.8936 9.94872 70.508 9.02564 71.3273 8.20513C72.1466 7.38461 73.0682 6.76923 74.1435 6.30769C75.2188 5.84615 76.3453 5.64102 77.5742 5.64102C78.5471 5.64102 79.4175 5.84615 80.1856 6.25641C80.9537 6.66667 81.5681 7.17949 82.0802 7.84615V0ZM77.6766 18.8718C78.4447 18.8718 79.1103 18.6667 79.7248 18.3077C80.3392 17.8974 80.8001 17.3846 81.1585 16.7179C81.5169 16.0513 81.6705 15.3333 81.6705 14.5128C81.6705 13.6923 81.5169 12.9744 81.1585 12.3077C80.8001 11.641 80.3392 11.1282 79.7248 10.7179C79.1103 10.3077 78.4447 10.1538 77.6766 10.1538C76.9085 10.1538 76.1917 10.359 75.5772 10.7179C74.9628 11.1282 74.4507 11.641 74.0923 12.3077C73.7339 12.9744 73.5291 13.6923 73.5291 14.5128C73.5291 15.3333 73.7339 16.0513 74.0923 16.7179C74.4507 17.3846 74.9628 17.8974 75.5772 18.3077C76.1917 18.7179 76.9085 18.8718 77.6766 18.8718Z" fill="#1F1226"></path>
                        <path id="Vector_6" d="M98.6191 23.3334C97.083 23.3334 95.7005 22.9231 94.4204 22.1539C93.1403 21.3847 92.1674 20.3078 91.3993 18.9744C90.6313 17.6411 90.2728 16.1539 90.2728 14.5642C90.2728 13.3334 90.4776 12.2052 90.9385 11.1283C91.3481 10.0513 91.9626 9.12827 92.7306 8.30776C93.4987 7.48724 94.3692 6.87186 95.3932 6.41032C96.4173 5.94878 97.4926 5.74365 98.6191 5.74365C100.155 5.74365 101.538 6.15391 102.818 6.92314C104.098 7.69237 105.071 8.76929 105.839 10.1026C106.607 11.436 106.965 12.9231 106.965 14.5642C106.965 15.7949 106.761 16.9231 106.3 18.0001C105.89 19.077 105.276 20.0001 104.508 20.8206C103.74 21.6411 102.869 22.2565 101.845 22.718C100.872 23.077 99.7968 23.3334 98.6191 23.3334ZM98.6191 18.718C99.336 18.718 99.9504 18.5129 100.565 18.1539C101.128 17.7437 101.589 17.2821 101.896 16.6154C102.203 16.0001 102.357 15.2821 102.357 14.5129C102.357 13.7437 102.203 13.0257 101.845 12.4103C101.487 11.7437 101.026 11.2821 100.462 10.8719C99.8992 10.5129 99.2847 10.3078 98.5679 10.3078C97.851 10.3078 97.2366 10.5129 96.6733 10.8719C96.1101 11.2821 95.6493 11.7949 95.342 12.4103C95.0348 13.0257 94.83 13.7437 94.83 14.5129C94.83 15.2821 94.9836 16.0001 95.342 16.6667C95.7005 17.2821 96.1613 17.7949 96.7245 18.1539C97.2878 18.5129 97.9534 18.718 98.6191 18.718Z" fill="#1F1226"></path>
                        <path id="Vector_7" d="M110.345 22.8719V6.15392H114.953V7.38469C115.516 6.87187 116.182 6.41033 116.95 6.15392C117.718 5.84623 118.486 5.69238 119.306 5.69238C120.432 5.69238 121.507 5.94879 122.429 6.46161C123.402 6.97443 124.17 7.69238 124.733 8.56418C125.348 7.69238 126.116 6.97443 127.037 6.46161C127.959 5.94879 129.034 5.69238 130.161 5.69238C131.39 5.69238 132.465 6.00007 133.489 6.56418C134.462 7.17956 135.281 7.94879 135.844 8.92315C136.459 9.89751 136.715 11.0257 136.715 12.2565V22.9232H132.107V13.4873C132.107 12.9232 131.953 12.359 131.697 11.8975C131.39 11.436 131.031 11.0257 130.57 10.7693C130.11 10.4616 129.598 10.359 128.983 10.359C128.42 10.359 127.857 10.5129 127.396 10.7693C126.935 11.0257 126.525 11.436 126.269 11.8975C125.962 12.359 125.86 12.9232 125.86 13.4873V22.8719H121.251V13.4873C121.251 12.8719 121.098 12.359 120.842 11.8975C120.586 11.436 120.176 11.0257 119.715 10.7693C119.254 10.5129 118.691 10.359 118.128 10.359C117.565 10.359 117.053 10.5129 116.541 10.7693C116.08 11.077 115.67 11.436 115.414 11.8975C115.107 12.359 115.004 12.9232 115.004 13.4873V22.8719H110.345Z" fill="#1F1226"></path>
                        <path id="Vector_8" d="M152.844 6.15391H157.453V22.9231H152.844L152.639 21.1795C152.23 21.8462 151.666 22.359 150.95 22.7693C150.284 23.1795 149.465 23.3847 148.543 23.3847C147.314 23.3847 146.136 23.1283 145.061 22.6667C143.986 22.2052 143.013 21.5385 142.194 20.718C141.374 19.8975 140.709 18.9231 140.248 17.8462C139.787 16.7693 139.531 15.5898 139.531 14.359C139.531 13.1795 139.736 12.0513 140.197 11.0257C140.606 10.0001 141.221 9.07699 142.04 8.25647C142.808 7.48724 143.73 6.82058 144.754 6.41032C145.778 5.94878 146.905 5.74365 148.082 5.74365C149.106 5.74365 150.028 5.94878 150.847 6.41032C151.667 6.82058 152.383 7.38468 152.998 8.05134L152.844 6.15391ZM148.441 18.8719C149.209 18.8719 149.874 18.6667 150.489 18.3078C151.103 17.8975 151.564 17.3847 151.923 16.718C152.281 16.0513 152.435 15.3334 152.435 14.5129C152.435 13.6924 152.281 12.9744 151.923 12.3078C151.564 11.6411 151.103 11.1283 150.489 10.718C149.874 10.3078 149.209 10.1539 148.441 10.1539C147.673 10.1539 146.956 10.359 146.341 10.718C145.727 11.1283 145.215 11.6411 144.856 12.3078C144.498 12.9744 144.293 13.6924 144.293 14.5129C144.293 15.3334 144.498 16.0513 144.856 16.718C145.215 17.3847 145.727 17.8975 146.341 18.3078C147.007 18.718 147.673 18.8719 148.441 18.8719Z" fill="#1F1226"></path>
                        <path id="Vector_9" d="M161.651 6.15381H166.26V22.923H161.651V6.15381Z" fill="#1F1226"></path>
                        <path id="Vector_10" d="M186.537 12.2565V22.9232H181.928V13.4873C181.928 12.8719 181.775 12.3591 181.519 11.8975C181.211 11.436 180.853 11.0257 180.392 10.7693C179.931 10.5129 179.368 10.3591 178.805 10.3591C178.241 10.3591 177.678 10.5129 177.217 10.7693C176.757 11.0257 176.347 11.436 176.091 11.8975C175.835 12.3591 175.681 12.9232 175.681 13.4873V22.8719H171.073V6.10265H175.681V7.33342C176.244 6.8206 176.91 6.35906 177.627 6.10265C178.395 5.79496 179.163 5.64111 180.034 5.64111C181.262 5.64111 182.338 5.94881 183.362 6.51291C184.335 7.12829 185.154 7.89752 185.717 8.87188C186.229 9.89752 186.537 11.0257 186.537 12.2565Z" fill="#1F1226"></path>
                      </g>
                    </g>
                    <path d="M166 27H14L12 32H166V27Z" fill="url(#paint0_linear_40_899)"></path>
                    <path id="logo-underline" d="M166 27H14L12 32H166V27Z" fill="white"></path>
                  </g>
                </g>
                <defs>
                  <linearGradient id="paint0_linear_40_899" x1="205.5" y1="29.0001" x2="14" y2="29" gradientUnits="userSpaceOnUse">
                    <stop stop-color="#CBDD55"></stop>
                    <stop offset="1" stop-color="#CBDD55" stop-opacity="0"></stop>
                  </linearGradient>
                  <clipPath id="clip0_40_899">
                    <rect width="186.537" height="32" fill="white"></rect>
                  </clipPath>
                </defs>
              </svg>